<svg width="26" height="26" viewBox="0 0 26 26" fill="none" xmlns="http://www.w3.org/2000/svg">
<path fill-rule="evenodd" clip-rule="evenodd" d="M12.999 0.439301C5.94239 0.439301 0.219604 6.30605 0.219604 13.5435C0.219604 19.3322 3.88128 24.244 8.9599 25.9776C9.59933 26.0975 9.83237 25.6928 9.83237 25.3453C9.83237 25.034 9.82125 24.2102 9.81457 23.117C6.25961 23.9085 5.50955 21.3602 5.50955 21.3602C4.92817 19.8462 4.09023 19.4432 4.09023 19.4432C2.92982 18.6307 4.17808 18.6468 4.17808 18.6468C5.46087 18.7393 6.13562 19.9974 6.13562 19.9974C7.27563 21.9996 9.12724 21.4213 9.85534 21.0858C9.97143 20.2396 10.3018 19.662 10.6666 19.3346C7.82876 19.0032 4.84497 17.8794 4.84497 12.8581C4.84497 11.427 5.3432 10.2582 6.16073 9.34196C6.02884 9.01052 5.59033 7.67835 6.28638 5.87402C6.28638 5.87402 7.3589 5.52171 9.80054 7.21666C10.8197 6.92624 11.9134 6.78145 13.0001 6.77582C14.0859 6.78038 15.1789 6.92631 16.1996 7.21666C18.6397 5.52171 19.7106 5.87402 19.7106 5.87402C20.4081 7.67835 19.9695 9.01052 19.8385 9.34196C20.6576 10.2582 21.1519 11.427 21.1519 12.8581C21.1519 17.8922 18.1634 18.9999 15.3169 19.3241C15.7751 19.7287 16.1839 20.5284 16.1839 21.7511C16.1839 23.5023 16.1683 24.9157 16.1683 25.3453C16.1683 25.696 16.399 26.1039 17.0471 25.976C22.1218 24.2392 25.7803 19.3314 25.7803 13.5435C25.7803 6.30605 20.0575 0.439301 12.9986 0.439301" fill="white"/>
</svg>
