<svg viewBox="0 0 524 494" fill="none" xmlns="http://www.w3.org/2000/svg">
			<g clip-path="url(#clip0_20_495)">
			<path d="M380.427 280.325V416.789L403.226 453.989L404.961 456.819H494.922L496.739 280.325H380.427Z" fill="#E6E6E6"/>
			<path opacity="0.1" d="M380.427 280.325V416.789L403.226 453.989L404.625 280.325H380.427Z" fill="black"/>
			<path d="M163.249 276.686V413.15L140.449 450.351L138.714 453.179H48.7538L46.9361 276.686H163.249Z" fill="#E6E6E6"/>
			<path opacity="0.1" d="M163.249 276.686V413.15L140.449 450.351L139.05 276.686H163.249Z" fill="black"/>
			<path d="M524 273.957V282.144H35.123V270.317L80.5575 246.663H484.018L524 273.957Z" fill="#E6E6E6"/>
			<path opacity="0.1" d="M524 273.957V282.144H35.123V270.317L524 273.957Z" fill="black"/>
			<path d="M105.093 314.896H83.2837L74.1968 308.527H115.088L105.093 314.896Z" fill="#3F3D56"/>
			<path d="M105.093 341.279H83.2837L74.1968 334.911H115.088L105.093 341.279Z" fill="#3F3D56"/>
			<path d="M105.093 378.58H83.2837L74.1968 372.211H115.088L105.093 378.58Z" fill="#3F3D56"/>
			<path d="M105.093 415.88H83.2837L74.1968 409.511H115.088L105.093 415.88Z" fill="#3F3D56"/>
			<path d="M438.583 318.535H460.392L469.479 312.166H428.587L438.583 318.535Z" fill="#3F3D56"/>
			<path d="M438.583 344.918H460.392L469.479 338.55H428.587L438.583 344.918Z" fill="#3F3D56"/>
			<path d="M438.583 382.219H460.392L469.479 375.85H428.587L438.583 382.219Z" fill="#3F3D56"/>
			<path d="M438.583 419.518H460.392L469.479 413.15H428.587L438.583 419.518Z" fill="#3F3D56"/>
			<path d="M453.434 88.8561H269.835C268.924 88.856 268.021 89.0357 267.178 89.385C266.336 89.7343 265.57 90.2464 264.925 90.8919C264.281 91.5375 263.769 92.3039 263.42 93.1473C263.071 93.9908 262.892 94.8948 262.892 95.8078V219.63C262.892 220.543 263.071 221.447 263.42 222.291C263.769 223.134 264.281 223.9 264.925 224.546C265.57 225.192 266.336 225.704 267.178 226.053C268.021 226.402 268.924 226.582 269.835 226.582H339.531L336.92 243.272C336.92 243.272 321.998 251.209 332.49 251.443C342.982 251.676 392.412 251.443 392.412 251.443C392.412 251.443 401.971 251.443 386.816 243.039L384.36 226.582H453.434C454.346 226.582 455.249 226.402 456.091 226.053C456.934 225.704 457.699 225.192 458.344 224.546C458.989 223.9 459.5 223.134 459.849 222.291C460.198 221.447 460.378 220.543 460.378 219.63V95.8078C460.378 94.8948 460.198 93.9908 459.849 93.1473C459.5 92.3039 458.989 91.5375 458.344 90.8919C457.699 90.2464 456.934 89.7343 456.091 89.385C455.249 89.0357 454.346 88.856 453.434 88.8561Z" fill="#3F3D56"/>
			<path d="M453.733 96.2093H269.537V199.387H453.733V96.2093Z" fill="#F2F2F2"/>
			<path d="M361.635 94.1084C362.279 94.1084 362.801 93.5858 362.801 92.9412C362.801 92.2966 362.279 91.774 361.635 91.774C360.991 91.774 360.469 92.2966 360.469 92.9412C360.469 93.5858 360.991 94.1084 361.635 94.1084Z" fill="#F2F2F2"/>
			<path d="M361.635 221.563C364.081 221.563 366.065 219.577 366.065 217.128C366.065 214.678 364.081 212.693 361.635 212.693C359.188 212.693 357.205 214.678 357.205 217.128C357.205 219.577 359.188 221.563 361.635 221.563Z" fill="#F2F2F2"/>
			<path d="M354.732 264.048V266.383H229.292V264.515L229.465 264.048L232.556 255.644H352.167L354.732 264.048Z" fill="#3F3D56"/>
			<path d="M403.005 261.763C402.776 262.741 401.913 263.772 399.964 264.748C392.97 268.25 378.747 263.814 378.747 263.814C378.747 263.814 367.788 261.947 367.788 257.045C368.096 256.834 368.417 256.643 368.749 256.473C371.69 254.915 381.44 251.072 398.729 256.636C400.003 257.036 401.141 257.782 402.016 258.792C402.404 259.174 402.695 259.642 402.867 260.158C403.039 260.675 403.086 261.224 403.005 261.763Z" fill="#3F3D56"/>
			<path opacity="0.1" d="M403.005 261.763C394.443 265.047 386.812 265.292 378.98 259.846C376.018 257.654 372.432 256.472 368.749 256.473C371.69 254.915 381.44 251.072 398.73 256.636C400.003 257.036 401.141 257.782 402.016 258.792C402.404 259.174 402.695 259.642 402.867 260.158C403.039 260.675 403.086 261.224 403.005 261.763Z" fill="black"/>
			<path d="M392.27 259.846C393.944 259.846 395.301 259.428 395.301 258.912C395.301 258.397 393.944 257.979 392.27 257.979C390.596 257.979 389.239 258.397 389.239 258.912C389.239 259.428 390.596 259.846 392.27 259.846Z" fill="#F2F2F2"/>
			<path opacity="0.1" d="M354.732 264.048V266.383H229.292V264.515L229.465 264.048H354.732Z" fill="black"/>
			<path d="M69.7461 0.000108177C68.4731 -0.10454 67.1983 0.180571 66.0907 0.817659C65.0032 1.56329 64.3178 2.86955 63.6181 4.08511C60.943 8.78817 57.3215 12.8838 52.983 16.1124C49.8229 18.4302 45.8054 21.3201 46.346 25.5934C46.6312 27.0046 47.152 28.3576 47.8863 29.5956C50.8015 35.4873 58.7567 40.0403 57.9742 46.7633C60.8706 41.9088 56.9965 39.5084 59.8928 34.6539C61.2722 32.3421 63.6683 29.7325 65.7508 31.1843C66.448 31.6704 66.9059 32.5423 67.6319 32.9688C69.3643 33.9866 71.2073 32.0408 72.7408 30.6626C78.0286 25.9102 85.5485 27.1552 92.1287 28.636C95.2352 29.335 98.6473 30.2522 100.484 33.2247C102.898 37.133 98.1898 41.354 97.0001 45.7728C96.903 46.1493 96.8984 46.5437 96.9867 46.9224C97.0751 47.3011 97.2537 47.6527 97.5074 47.9472C97.761 48.2417 98.0821 48.4703 98.4433 48.6134C98.8044 48.7566 99.1948 48.8101 99.5811 48.7692C101.555 48.5742 103.894 48.4144 104.011 47.547C106.495 47.6355 109.539 47.3538 110.604 44.7641C110.929 43.7395 111.101 42.6723 111.114 41.5972C111.504 37.2471 113.349 33.2785 114.57 29.1381C115.792 24.9978 116.323 20.1457 114.261 16.4748C113.526 15.2535 112.616 14.1462 111.56 13.1881C99.8608 1.85265 84.4784 -0.0167179 69.7461 0.000108177Z" fill="#F8BD79"/>
			<path d="M60.5187 55.2548C60.5187 55.2548 63.0631 76.4835 53.7335 78.1818C44.4038 79.8802 62.215 108.751 62.215 108.751L104.623 113.846L94.4448 79.8801C94.4448 79.8801 87.6595 77.3327 91.9003 60.3497C96.1411 43.3667 60.5187 55.2548 60.5187 55.2548Z" fill="#F9C6B6"/>
			<path d="M34.65 419.965L38.043 466.668H55.8535L50.7652 419.965H34.65Z" fill="#F9C6B6"/>
			<path d="M165.265 331.653L167.81 370.714L187.318 362.223L179.684 329.955L165.265 331.653Z" fill="#F9C6B6"/>
			<path d="M21.9278 241.643C21.9278 241.643 22.7759 290.894 27.8649 307.028C32.9538 323.162 32.1056 324.011 31.2575 326.558C30.4093 329.106 29.5612 327.408 29.5612 331.653C29.5612 335.899 27.8649 402.982 29.5612 408.926C31.2575 414.87 24.4723 425.06 29.5612 425.909C34.6501 426.758 58.3983 425.909 59.2465 420.814C60.0946 415.719 52.4613 414.021 55.8539 410.624C59.2465 407.228 64.3354 337.597 64.3354 337.597L76.2095 289.196L98.2615 263.721H144.91L159.328 319.765C159.328 319.765 153.391 335.899 157.632 335.899C161.873 335.899 187.317 340.994 187.317 322.313C187.317 303.631 178.836 248.436 177.14 246.738C175.443 245.04 177.988 239.096 175.443 236.548C172.899 234.001 143.213 216.169 132.188 212.772C121.162 209.376 105.694 205.333 105.694 205.333L21.9278 241.643Z" fill="#2F2E41"/>
			<path d="M187.317 355.429C187.317 355.429 174.595 351.184 168.658 363.921C162.721 376.658 165.265 380.055 165.265 380.055C165.265 380.055 184.773 386.848 188.166 383.451C189.642 381.974 194.329 381.46 199.153 381.352C206.501 381.187 208.456 370.779 201.516 368.355C201.309 368.283 201.1 368.22 200.888 368.167C194.103 366.468 187.317 355.429 187.317 355.429Z" fill="#2F2E41"/>
			<path d="M79.6021 69.2658C93.6547 69.2658 105.047 57.8604 105.047 43.7913C105.047 29.7221 93.6547 18.3167 79.6021 18.3167C65.5495 18.3167 54.1575 29.7221 54.1575 43.7913C54.1575 57.8604 65.5495 69.2658 79.6021 69.2658Z" fill="#F9C6B6"/>
			<path d="M46.5242 88.7962C46.5242 88.7962 88.0836 97.2877 98.2614 83.7013C108.439 70.1149 112.68 121.913 112.68 121.913L117.769 176.259L110.136 205.979C110.136 205.979 70.2724 238.247 57.5501 240.794C44.8279 243.342 25.3204 245.04 25.3204 245.04C25.3204 245.04 31.2575 150.784 31.2575 149.086C31.2575 147.388 46.5242 88.7962 46.5242 88.7962Z" fill="#6C63FF"/>
			<path d="M59.1634 72.8707C59.1634 72.8707 49.9168 67.5675 47.3723 72.6624C44.8279 77.7573 21.0796 90.4945 18.5352 90.4945C15.9907 90.4945 23.6241 160.974 20.2315 169.465C16.8389 177.957 0.723974 239.945 10.0536 245.04C19.3833 250.135 12.5981 239.945 21.9278 252.682C31.2574 265.419 77.0576 265.419 79.6021 260.325C82.1465 255.23 59.2464 217.018 63.4872 181.354C67.728 145.689 74.5132 96.4386 68.5761 89.6454C62.6391 82.8522 59.1634 72.8707 59.1634 72.8707Z" fill="#2F2E41"/>
			<path d="M89.78 78.6064L90.9613 74.536C90.9613 74.536 126.251 86.2488 127.947 93.8911C129.643 101.533 128.795 155.03 122.858 159.276C116.921 163.521 108.439 170.315 114.376 180.504C120.313 190.694 127.099 201.733 132.188 202.582C137.277 203.432 146.606 209.376 144.062 215.32C141.517 221.264 110.984 210.225 110.984 210.225C110.984 210.225 90.6281 194.94 91.4763 171.164C92.3244 147.388 89.78 78.6064 89.78 78.6064Z" fill="#2F2E41"/>
			<path d="M119.465 178.806L99.1096 217.018C99.1096 217.018 69.4243 247.587 86.3873 250.984C103.35 254.381 112.68 222.962 112.68 222.962L134.732 191.543L119.465 178.806Z" fill="#F9C6B6"/>
			<path d="M70.9857 6.66545C69.9601 6.58937 68.9328 6.78885 68.01 7.24329C67.1756 7.85339 66.4879 8.64241 65.9972 9.55271C63.7349 12.9596 60.786 15.8552 57.3398 18.0535C54.7673 19.6917 51.4969 21.7343 51.937 24.7546C52.1759 25.7673 52.6011 26.7265 53.1909 27.5833C55.5722 31.7896 56.5202 36.6581 55.8914 41.4519L62.9647 31.1585C64.0875 29.5246 66.038 27.6801 67.7333 28.7062C68.3009 29.0498 68.6736 29.6661 69.2646 29.9675C70.6748 30.6869 72.1751 29.3117 73.4234 28.3375C77.728 24.9785 83.8495 25.8585 89.206 26.9051C91.7348 27.3992 94.5125 28.0474 96.0074 30.1484C98.4916 33.6399 95.8976 38.6847 97.3475 42.7182C97.7533 42.4337 98.098 42.0705 98.3611 41.6502C98.6241 41.2299 98.8002 40.761 98.8789 40.2712C100.901 40.3338 103.379 40.1348 104.245 38.3044C104.509 37.587 104.649 36.8302 104.661 36.066C104.979 32.9914 106.48 30.1863 107.474 27.26C108.469 24.3337 108.901 20.9042 107.223 18.3097C106.609 17.4306 105.868 16.6477 105.024 15.9866C95.5003 7.9748 82.9783 6.65356 70.9857 6.66545Z" fill="#F8BD79"/>
			<path d="M119.465 90.4945L127.368 92.5945C127.368 92.5945 145.758 139.745 141.517 172.013C137.276 204.281 134.732 197.487 134.732 197.487C134.732 197.487 127.947 182.203 112.68 185.599L119.465 90.4945Z" fill="#2F2E41"/>
			<path d="M35.8251 460.496C33.7798 463.279 34.1899 467.256 32.3782 470.197C30.8077 472.745 27.8481 474.082 25.8838 476.34C25.257 477.091 24.6982 477.895 24.2141 478.745C22.3919 481.801 20.9108 485.717 22.7054 488.789C24.1491 491.261 27.1836 492.227 29.9665 492.885C33.484 493.717 37.1388 494.383 40.6969 493.747C44.255 493.111 47.7324 490.93 49.0011 487.542C49.2504 486.69 49.5468 485.852 49.889 485.033C51.8175 481.232 57.8666 481.191 59.8403 477.413C61.2216 474.769 59.9519 471.573 58.6827 468.874L54.8064 460.629C53.52 457.893 48.3051 459.466 45.5865 458.811C42.0409 457.956 38.3758 457.014 35.8251 460.496Z" fill="#2F2E41"/>
			<path d="M7.50918 195.789L43.1316 250.984C43.1316 250.984 65.1835 279.006 71.9687 266.269C78.7539 253.531 48.2205 232.303 48.2205 232.303L25.3204 189.845L7.50918 195.789Z" fill="#F9C6B6"/>
			<path d="M25.3204 92.1928L18.5352 90.4945C18.5352 90.4945 4.96472 94.7403 1.57212 112.572C-1.82048 130.405 0.723964 201.733 4.96472 202.582C9.20548 203.432 25.9098 190.163 28.5836 192.976C31.2574 195.789 22.7759 181.354 25.3203 173.711C27.8648 166.069 25.3204 92.1928 25.3204 92.1928Z" fill="#2F2E41"/>
			<path d="M344.201 130.096H322.279V135.38H344.201V130.096Z" fill="#6C63FF"/>
			<path d="M420.114 130.096H412.401V135.38H420.114V130.096Z" fill="#6C63FF"/>
			<path d="M435.54 130.096H427.827V135.38H435.54V130.096Z" fill="#6C63FF"/>
			<path d="M404.282 130.096H351.914V135.38H404.282V130.096Z" fill="#6C63FF"/>
			<path d="M316.596 164.236H294.675V169.52H316.596V164.236Z" fill="#6C63FF"/>
			<path d="M392.509 164.236H384.796V169.52H392.509V164.236Z" fill="#6C63FF"/>
			<path d="M407.935 164.236H400.222V169.52H407.935V164.236Z" fill="#6C63FF"/>
			<path d="M376.677 164.236H324.309V169.52H376.677V164.236Z" fill="#6C63FF"/>
			<path d="M407.123 141.883H385.202V147.166H407.123V141.883Z" fill="#6C63FF"/>
			<path d="M436.758 141.883H414.836V147.166H436.758V141.883Z" fill="#6C63FF"/>
			<path d="M302.388 141.883H294.675V147.166H302.388V141.883Z" fill="#6C63FF"/>
			<path d="M317.814 141.883H310.101V147.166H317.814V141.883Z" fill="#6C63FF"/>
			<path d="M377.895 141.883H325.527V147.166H377.895V141.883Z" fill="#6C63FF"/>
			<path d="M361.657 153.263H339.735V158.546H361.657V153.263Z" fill="#6C63FF"/>
			<path d="M332.022 153.263H310.101V158.546H332.022V153.263Z" fill="#6C63FF"/>
			<path d="M302.388 153.263H294.675V158.546H302.388V153.263Z" fill="#6C63FF"/>
			<path d="M436.758 153.263H429.045V158.546H436.758V153.263Z" fill="#6C63FF"/>
			<path d="M421.332 153.263H368.964V158.546H421.332V153.263Z" fill="#6C63FF"/>
			</g>
			<defs>
			<clipPath id="clip0_20_495">
			<rect width="524" height="494" fill="white"/>
			</clipPath>
			</defs>
			</svg>		